<svg preserveAspectRatio="none" overflow="visible" style="display: block;" width="49.2165" height="61.0393" viewBox="0 0 49.2165 61.0393" fill="none" xmlns="http://www.w3.org/2000/svg">
<g id="Group 2085667900">
<path id="Vector 21453" d="M43.5086 21.8006C43.5086 21.8006 40.9025 26.5273 40.8532 25.6304C40.8039 24.7335 40.0082 19.5996 39.4045 18.3671C34.3351 8.85882 33.2333 8.76025 32.766 9.38677C32.2987 10.0133 31.4383 11.9398 31.1969 13.7446C30.9555 15.5493 30.3903 13.9514 30.2313 13.7446C30.0723 13.5377 23.0077 3.51941 19.3683 1.85906C15.729 0.198706 13.2933 -0.570642 13.8161 0.934614C14.339 2.43987 16.1054 13.3616 15.1438 13.7446C14.1823 14.1275 8.50536 10.7071 7.66046 12.6881C6.98454 14.2728 9.71436 25.8882 9.10886 25.8944C8.50336 25.9006 5.99481 23.7021 3.19458 23.3852C-0.305713 22.989 -0.185016 24.5737 0.539181 27.0829C1.11854 29.0903 12.4219 54.3541 12.7298 54.9483C13.0378 55.5424 14.661 58.9982 15.1438 59.0422C17.2682 59.5705 21.1109 55.9304 21.4202 55.6086C21.7296 55.2868 31.1883 55.2868 31.4383 55.6086C31.6883 55.9304 31.8158 57.7872 32.5246 58.6461C33.2334 59.5049 38.2218 60.0723 43.1464 51.5146C48.0709 42.9569 47.7331 27.8753 47.7331 27.8753C47.7331 27.8753 47.8055 26.6341 46.6468 23.2532C45.4881 19.8724 44.0719 20.8761 43.5086 21.8006Z" fill="var(--fill-0, #FE7023)" stroke="var(--stroke-0, #111143)" stroke-width="0.255641"/>
<g id="Vector 21455" filter="url(#filter0_f_1394_3421)">
<path d="M39.608 27.4131L37.6768 30.1984C37.8877 28.1237 37.0622 25.8123 36.6231 24.916C32.9363 18.0009 32.4096 19.1532 31.7952 18.3849C31.3036 17.7702 30.8296 20.2416 30.654 21.5542H29.9517C27.4939 17.8658 23.6607 14.2547 22.0514 12.9102C20.4421 12.1738 17.3814 11.0084 18.0135 12.2378C18.8035 13.7746 18.979 21.0739 18.979 21.5542C18.979 22.0344 14.1511 19.3451 13.5366 20.7858C13.045 21.9383 14.034 27.6691 14.59 30.3904C14.0048 29.8781 12.3252 28.796 10.2887 28.5655C7.74301 28.2774 7.8308 29.4299 8.35748 31.2548C8.77884 32.7147 14.4437 45.3736 17.2234 51.5205C17.7852 53.8256 18.6279 54.4659 18.979 54.4979C20.524 54.8821 22.6659 52.9932 23.5437 52.0007H30.8296C30.8998 53.5375 31.3855 54.1137 31.6196 54.2098C32.7023 55.0742 35.763 55.2471 39.3445 49.0233C42.926 42.7995 43.0607 34.9686 42.6803 31.8311C42.7681 31.7351 42.733 30.9283 41.8903 28.4696C41.0476 26.0108 40.0176 26.7407 39.608 27.4131Z" fill="url(#paint0_linear_1394_3421)"/>
</g>
<g id="Group 2085667897">
<path id="Vector 21479" d="M14.7634 26.2759C14.7634 26.2759 20.1418 28.3555 19.9267 29.001C19.7116 29.6464 14.7634 31.2957 14.7634 31.2957" stroke="var(--stroke-0, #111143)" stroke-width="1.09002" stroke-linecap="round"/>
<path id="Vector 21480" d="M33.0775 26.0586C33.0775 26.0586 27.5555 28.5685 27.6274 28.9988C27.6992 29.429 33.0775 31.5087 33.0775 31.5087" stroke="var(--stroke-0, #111143)" stroke-width="1.09002" stroke-linecap="round"/>
<path id="Vector 21481" d="M22.2555 34.5335C22.2233 35.1964 22.8089 35.5087 22.9453 36.1669C23.1236 37.0275 22.2207 37.381 22.5771 38.2051C23.2092 39.6665 27.3233 38.6425 26.955 37.1234C26.794 36.4591 26.1797 36.3945 25.9558 35.7419C25.721 35.0576 26.3094 34.5645 25.932 33.925C25.2575 32.782 22.3166 33.2737 22.2555 34.5335Z" fill="var(--fill-0, #111143)"/>
</g>
<path id="Star 15" d="M36.7626 21.957C36.7952 21.8862 36.8959 21.8862 36.9286 21.957L37.269 22.6952C37.2824 22.724 37.3097 22.7439 37.3413 22.7476L38.1485 22.8434C38.2259 22.8525 38.2571 22.9483 38.1998 23.0012L37.603 23.5531C37.5797 23.5747 37.5692 23.6069 37.5754 23.6381L37.7338 24.4353C37.749 24.5118 37.6676 24.571 37.5995 24.5329L36.8902 24.1359C36.8625 24.1203 36.8287 24.1203 36.8009 24.1359L36.0916 24.5329C36.0236 24.571 35.9421 24.5118 35.9573 24.4353L36.1158 23.6381C36.1219 23.6069 36.1115 23.5747 36.0882 23.5531L35.4914 23.0012C35.4341 22.9483 35.4652 22.8525 35.5427 22.8434L36.3499 22.7476C36.3814 22.7439 36.4088 22.724 36.4221 22.6952L36.7626 21.957Z" fill="var(--fill-0, #111143)"/>
</g>
<defs>
<filter id="filter0_f_1394_3421" x="1.6673" y="5.30964" width="47.5492" height="55.7297" filterUnits="userSpaceOnUse" color-interpolation-filters="sRGB">
<feFlood flood-opacity="0" result="BackgroundImageFix"/>
<feBlend mode="normal" in="SourceGraphic" in2="BackgroundImageFix" result="shape"/>
<feGaussianBlur stdDeviation="3.19551" result="effect1_foregroundBlur_1394_3421"/>
</filter>
<linearGradient id="paint0_linear_1394_3421" x1="25.4419" y1="11.7007" x2="25.4419" y2="54.6483" gradientUnits="userSpaceOnUse">
<stop stop-color="#FF9D58"/>
<stop offset="1" stop-color="#FE7023"/>
</linearGradient>
</defs>
</svg>
